# xmcd
#
# Track frame offsets: 
#        150
#        20362
#        34570
#        49102
#        63125
#        77130
#        95377
#        107917
#        124532
#        137525
#        153112
#        168175
#        179275
#        194807
#        210175
#        225380
#
# Disc length: 3184 seconds
#
# Revision: 0
# Processed by: cddbd v1.5.2PL0 Copyright (c) Steve Scherf et al.
# Submitted via: ExactAudioCopy v1.1
#
DISCID=be0c6e10
DTITLE=ディック・ミネ - RE-MASTER VOICE (Disc2)
DYEAR=2002
DGENRE=Pop
TTITLE0=影を慕いて
TTITLE1=緑の地平線
TTITLE2=男の純情
TTITLE3=白い椿の唄
TTITLE4=夕べ仄かに
TTITLE5=青春日記
TTITLE6=酒は涙か溜息か
TTITLE7=東京ラプソディー
TTITLE8=ゆかりの唄
TTITLE9=人生の並木路
TTITLE10=愛の小窓
TTITLE11=二人は若い
TTITLE12=雨の酒場で
TTITLE13=或る雨の午后
TTITLE14=夜霧のブルース
TTITLE15=長崎エレジー
EXTD=
EXTT0=
EXTT1=
EXTT2=
EXTT3=
EXTT4=
EXTT5=
EXTT6=
EXTT7=
EXTT8=
EXTT9=
EXTT10=
EXTT11=
EXTT12=
EXTT13=
EXTT14=
EXTT15=
PLAYORDER=
